<svg width="387" height="766" viewBox="0 0 387 766" fill="none" xmlns="http://www.w3.org/2000/svg">
<g opacity="0.35" clip-path="url(#clip0_519_2471)">
<path d="M261.126 30.5564C267.22 33.6086 274.636 31.1417 277.688 25.0465C280.74 18.9513 278.274 11.5359 272.18 8.48372C266.085 5.43155 258.67 7.89841 255.618 13.9936C252.565 20.0888 255.031 27.5042 261.126 30.5564Z" stroke="#E64E2E" stroke-width="2" stroke-linecap="round" stroke-linejoin="round"/>
<path d="M225.677 100.953C223.494 99.8596 221.685 98.1439 220.478 96.0224C219.27 93.9009 218.718 91.4688 218.893 89.0339C219.068 86.599 219.961 84.2705 221.459 82.3429C222.957 80.4153 224.993 78.9753 227.309 78.2047C229.625 77.4341 232.118 77.3677 234.472 78.0138C236.825 78.66 238.935 79.9898 240.533 81.835C242.131 83.6801 243.146 85.9578 243.45 88.38C243.753 90.8021 243.332 93.2601 242.239 95.4429C240.773 98.3699 238.204 100.595 235.098 101.628C231.992 102.661 228.603 102.418 225.677 100.953Z" stroke="#E64E2E" stroke-width="2" stroke-linecap="round" stroke-linejoin="round"/>
<path d="M190.501 171.585C196.595 174.637 204.011 172.17 207.063 166.075C210.115 159.98 207.649 152.564 201.555 149.512C195.46 146.46 188.045 148.927 184.993 155.022C181.94 161.117 184.406 168.533 190.501 171.585Z" stroke="#E64E2E" stroke-width="2" stroke-linecap="round" stroke-linejoin="round"/>
<path d="M155.048 241.981C152.865 240.888 151.056 239.172 149.849 237.051C148.641 234.929 148.09 232.497 148.264 230.062C148.439 227.627 149.332 225.299 150.83 223.371C152.328 221.444 154.364 220.004 156.68 219.233C158.996 218.463 161.489 218.396 163.843 219.042C166.197 219.689 168.306 221.018 169.904 222.863C171.502 224.709 172.517 226.986 172.821 229.409C173.125 231.831 172.703 234.289 171.61 236.471C170.144 239.398 167.576 241.623 164.47 242.656C161.363 243.69 157.974 243.447 155.048 241.981Z" stroke="#E64E2E" stroke-width="2" stroke-linecap="round" stroke-linejoin="round"/>
<path d="M119.915 312.535C126.009 315.587 133.425 313.12 136.477 307.025C139.53 300.93 137.063 293.514 130.969 290.462C124.874 287.41 117.459 289.877 114.407 295.972C111.354 302.067 113.82 309.482 119.915 312.535Z" stroke="#E64E2E" stroke-width="2" stroke-linecap="round" stroke-linejoin="round"/>
<path d="M84.4228 383.01C82.2402 381.917 80.431 380.201 79.2236 378.079C78.0162 375.958 77.4645 373.526 77.6392 371.091C77.8139 368.656 78.7068 366.328 80.2047 364.4C81.7027 362.472 83.7387 361.032 86.055 360.262C88.3713 359.491 90.8637 359.425 93.2176 360.071C95.5715 360.717 97.681 362.047 99.2791 363.892C100.877 365.737 101.892 368.015 102.196 370.437C102.5 372.859 102.078 375.317 100.985 377.5C99.5193 380.427 96.9505 382.652 93.8445 383.685C90.7385 384.718 87.3495 384.475 84.4228 383.01Z" stroke="#E64E2E" stroke-width="2" stroke-linecap="round" stroke-linejoin="round"/>
<path d="M49.286 453.563C55.3805 456.615 62.7957 454.149 65.8482 448.053C68.9006 441.958 66.4345 434.543 60.3399 431.491C54.2453 428.438 46.8302 430.905 43.7777 437C40.7252 443.096 43.1914 450.511 49.286 453.563Z" stroke="#E64E2E" stroke-width="2" stroke-linecap="round" stroke-linejoin="round"/>
<path d="M13.7977 524.038C11.6151 522.945 9.80603 521.229 8.59861 519.108C7.39119 516.986 6.83954 514.554 7.01424 512.119C7.18894 509.684 8.08178 507.356 9.57971 505.429C11.0776 503.501 13.1137 502.061 15.43 501.29C17.7463 500.52 20.2387 500.453 22.5926 501.099C24.9465 501.746 27.0561 503.075 28.6542 504.92C30.2523 506.766 31.2673 509.043 31.571 511.465C31.8746 513.888 31.4534 516.345 30.3602 518.528C28.8944 521.455 26.3255 523.68 23.2195 524.713C20.1135 525.747 16.7244 525.504 13.7977 524.038Z" stroke="#E64E2E" stroke-width="2" stroke-linecap="round" stroke-linejoin="round"/>
<path d="M327.657 63.8736C333.752 66.9258 341.167 64.4589 344.219 58.3637C347.272 52.2685 344.806 44.8531 338.711 41.8009C332.616 38.7488 325.201 41.2156 322.149 47.3108C319.096 53.406 321.562 60.8214 327.657 63.8736Z" stroke="#E64E2E" stroke-width="2" stroke-linecap="round" stroke-linejoin="round"/>
<path d="M292.365 134.349C290.171 133.27 288.348 131.563 287.125 129.446C285.902 127.329 285.336 124.896 285.498 122.457C285.66 120.017 286.543 117.681 288.034 115.743C289.526 113.806 291.559 112.355 293.876 111.575C296.193 110.795 298.689 110.721 301.049 111.362C303.408 112.003 305.524 113.33 307.127 115.175C308.731 117.02 309.751 119.3 310.058 121.725C310.364 124.151 309.943 126.613 308.848 128.799C307.389 131.713 304.838 133.931 301.75 134.971C298.662 136.01 295.289 135.787 292.365 134.349Z" stroke="#E64E2E" stroke-width="2" stroke-linecap="round" stroke-linejoin="round"/>
<path d="M257.028 204.902C263.123 207.954 270.538 205.487 273.59 199.392C276.643 193.297 274.177 185.882 268.082 182.829C261.988 179.777 254.572 182.244 251.52 188.339C248.467 194.435 250.934 201.85 257.028 204.902Z" stroke="#E64E2E" stroke-width="2" stroke-linecap="round" stroke-linejoin="round"/>
<path d="M221.736 275.377C219.542 274.298 217.719 272.592 216.496 270.475C215.274 268.357 214.707 265.925 214.869 263.485C215.031 261.046 215.914 258.709 217.405 256.772C218.897 254.835 220.93 253.384 223.247 252.604C225.564 251.824 228.061 251.749 230.42 252.39C232.779 253.031 234.895 254.358 236.499 256.203C238.102 258.048 239.122 260.328 239.429 262.754C239.735 265.179 239.314 267.642 238.219 269.828C236.76 272.741 234.209 274.96 231.121 275.999C228.033 277.039 224.66 276.815 221.736 275.377Z" stroke="#E64E2E" stroke-width="2" stroke-linecap="round" stroke-linejoin="round"/>
<path d="M186.442 345.852C192.537 348.904 199.952 346.437 203.004 340.342C206.057 334.247 203.591 326.831 197.496 323.779C191.402 320.727 183.986 323.194 180.934 329.289C177.881 335.384 180.348 342.8 186.442 345.852Z" stroke="#E64E2E" stroke-width="2" stroke-linecap="round" stroke-linejoin="round"/>
<path d="M151.107 416.406C148.914 415.327 147.09 413.62 145.867 411.503C144.645 409.386 144.079 406.953 144.24 404.514C144.402 402.074 145.285 399.738 146.776 397.8C148.268 395.863 150.301 394.412 152.618 393.632C154.935 392.852 157.432 392.778 159.791 393.419C162.15 394.06 164.266 395.387 165.87 397.232C167.474 399.077 168.493 401.357 168.8 403.782C169.106 406.208 168.685 408.67 167.59 410.856C166.131 413.77 163.58 415.988 160.492 417.028C157.404 418.067 154.031 417.844 151.107 416.406Z" stroke="#E64E2E" stroke-width="2" stroke-linecap="round" stroke-linejoin="round"/>
<path d="M115.813 486.88C121.908 489.933 129.323 487.466 132.376 481.371C135.428 475.275 132.962 467.86 126.867 464.808C120.773 461.756 113.358 464.222 110.305 470.318C107.253 476.413 109.719 483.828 115.813 486.88Z" stroke="#E64E2E" stroke-width="2" stroke-linecap="round" stroke-linejoin="round"/>
<path d="M394.181 97.19C391.998 96.0969 390.188 94.381 388.981 92.2595C387.774 90.138 387.222 87.7061 387.397 85.2712C387.572 82.8363 388.465 80.5078 389.963 78.5802C391.46 76.6526 393.496 75.2123 395.812 74.4418C398.129 73.6712 400.622 73.605 402.975 74.2512C405.329 74.8973 407.438 76.2269 409.036 78.072C410.635 79.9172 411.65 82.1951 411.954 84.6173C412.257 87.0395 411.836 89.4972 410.743 91.68C409.277 94.607 406.708 96.8319 403.602 97.8652C400.496 98.8985 397.107 98.6557 394.181 97.19Z" stroke="#E64E2E" stroke-width="2" stroke-linecap="round" stroke-linejoin="round"/>
<path d="M358.888 167.665C356.705 166.572 354.895 164.856 353.688 162.734C352.481 160.613 351.929 158.181 352.104 155.746C352.279 153.311 353.172 150.983 354.67 149.055C356.168 147.128 358.203 145.687 360.519 144.917C362.836 144.146 365.329 144.08 367.682 144.726C370.036 145.372 372.145 146.702 373.743 148.547C375.342 150.392 376.357 152.67 376.661 155.092C376.964 157.514 376.543 159.972 375.45 162.155C373.984 165.082 371.415 167.307 368.309 168.34C365.203 169.373 361.814 169.131 358.888 167.665Z" stroke="#E64E2E" stroke-width="2" stroke-linecap="round" stroke-linejoin="round"/>
<path d="M323.595 238.14C321.409 237.045 319.597 235.325 318.39 233.199C317.182 231.074 316.634 228.637 316.813 226.199C316.992 223.761 317.892 221.43 319.397 219.504C320.902 217.577 322.946 216.141 325.269 215.378C327.591 214.614 330.088 214.558 332.443 215.216C334.797 215.873 336.904 217.216 338.494 219.072C340.085 220.929 341.088 223.216 341.377 225.643C341.666 228.071 341.227 230.53 340.117 232.708C338.637 235.611 336.07 237.811 332.974 238.829C329.879 239.846 326.508 239.599 323.595 238.14Z" stroke="#E64E2E" stroke-width="2" stroke-linecap="round" stroke-linejoin="round"/>
<path d="M288.263 308.693C286.08 307.6 284.27 305.884 283.063 303.763C281.856 301.641 281.304 299.209 281.479 296.775C281.654 294.34 282.547 292.011 284.045 290.084C285.543 288.156 287.578 286.716 289.894 285.945C292.211 285.175 294.704 285.108 297.057 285.755C299.411 286.401 301.52 287.73 303.118 289.575C304.717 291.421 305.732 293.698 306.036 296.121C306.339 298.543 305.918 301.001 304.825 303.183C303.359 306.11 300.79 308.335 297.684 309.369C294.578 310.402 291.189 310.159 288.263 308.693Z" stroke="#E64E2E" stroke-width="2" stroke-linecap="round" stroke-linejoin="round"/>
<path d="M252.966 379.168C250.78 378.073 248.968 376.354 247.761 374.228C246.553 372.102 246.005 369.666 246.184 367.227C246.364 364.789 247.263 362.459 248.768 360.532C250.274 358.606 252.317 357.17 254.64 356.406C256.962 355.643 259.459 355.586 261.814 356.244C264.168 356.902 266.275 358.244 267.865 360.101C269.456 361.957 270.459 364.244 270.748 366.672C271.037 369.1 270.599 371.559 269.488 373.737C268.008 376.64 265.441 378.84 262.346 379.857C259.25 380.875 255.879 380.627 252.966 379.168Z" stroke="#E64E2E" stroke-width="2" stroke-linecap="round" stroke-linejoin="round"/>
<path d="M217.634 449.722C215.451 448.629 213.641 446.913 212.434 444.791C211.227 442.67 210.675 440.238 210.85 437.803C211.025 435.368 211.918 433.04 213.416 431.112C214.914 429.185 216.949 427.744 219.265 426.974C221.582 426.203 224.075 426.137 226.429 426.783C228.782 427.429 230.891 428.759 232.49 430.604C234.088 432.449 235.103 434.727 235.407 437.149C235.71 439.571 235.289 442.029 234.196 444.212C232.73 447.139 230.161 449.364 227.055 450.397C223.949 451.43 220.56 451.188 217.634 449.722Z" stroke="#E64E2E" stroke-width="2" stroke-linecap="round" stroke-linejoin="round"/>
<path d="M390.083 271.535C396.177 274.587 403.593 272.12 406.645 266.025C409.698 259.93 407.231 252.514 401.137 249.462C395.042 246.41 387.627 248.877 384.575 254.972C381.522 261.067 383.988 268.483 390.083 271.535Z" stroke="#E64E2E" stroke-width="2" stroke-linecap="round" stroke-linejoin="round"/>
<path d="M354.786 342.01C352.603 340.917 350.794 339.201 349.586 337.079C348.379 334.958 347.828 332.526 348.003 330.091C348.177 327.656 349.07 325.328 350.568 323.4C352.066 321.472 354.102 320.032 356.418 319.261C358.734 318.491 361.227 318.425 363.581 319.071C365.935 319.717 368.044 321.047 369.642 322.892C371.24 324.737 372.255 327.015 372.559 329.437C372.862 331.859 372.441 334.317 371.348 336.5C369.882 339.427 367.314 341.652 364.208 342.685C361.102 343.718 357.713 343.475 354.786 342.01Z" stroke="#E64E2E" stroke-width="2" stroke-linecap="round" stroke-linejoin="round"/>
<path d="M319.493 412.484C325.588 415.537 333.003 413.07 336.055 406.975C339.108 400.879 336.642 393.464 330.547 390.412C324.452 387.36 317.037 389.826 313.985 395.922C310.932 402.017 313.398 409.432 319.493 412.484Z" stroke="#E64E2E" stroke-width="2" stroke-linecap="round" stroke-linejoin="round"/>
</g>
<defs>
<clipPath id="clip0_519_2471">
<rect width="550" height="581" fill="white" transform="translate(260.164) rotate(26.6017)"/>
</clipPath>
</defs>
</svg>
