<svg width="40" height="40" viewBox="0 0 69 69" fill="none" xmlns="http://www.w3.org/2000/svg">
<g clip-path="url(#clip0_809_2770)">
<path d="M65.1711 34.3005H54.8809V3.43002C54.8833 2.82561 54.726 2.23129 54.4248 1.70726C54.1236 1.18322 53.6893 0.748071 53.1659 0.445869C52.6445 0.144818 52.053 -0.0136719 51.4509 -0.0136719C50.8488 -0.0136719 50.2573 0.144818 49.7358 0.445869L39.4457 6.34556L29.1555 0.445869C28.6341 0.144818 28.0426 -0.0136719 27.4405 -0.0136719C26.8384 -0.0136719 26.2469 0.144818 25.7254 0.445869L15.4353 6.34556L5.14511 0.445869C4.62368 0.144818 4.03218 -0.0136719 3.43008 -0.0136719C2.82798 -0.0136719 2.23649 0.144818 1.71505 0.445869C1.19161 0.748071 0.75732 1.18322 0.45615 1.70726C0.154979 2.23129 -0.00237252 2.82561 2.70387e-05 3.43002V58.3109C2.70387e-05 61.04 1.08417 63.6574 3.01395 65.5872C4.94373 67.5169 7.56107 68.6011 10.2902 68.6011H58.311C61.0401 68.6011 63.6574 67.5169 65.5872 65.5872C67.517 63.6574 68.6011 61.04 68.6011 58.3109V37.7306C68.6011 36.8209 68.2398 35.9484 67.5965 35.3052C66.9532 34.6619 66.0808 34.3005 65.1711 34.3005ZM10.2902 61.741C9.38049 61.741 8.50804 61.3796 7.86478 60.7363C7.22152 60.0931 6.86014 59.2206 6.86014 58.3109V9.36401L13.7203 13.2743C14.2513 13.5453 14.8391 13.6866 15.4353 13.6866C16.0315 13.6866 16.6192 13.5453 17.1503 13.2743L27.4405 7.37458L37.7306 13.2743C38.2617 13.5453 38.8494 13.6866 39.4457 13.6866C40.0419 13.6866 40.6296 13.5453 41.1607 13.2743L48.0208 9.36401V58.3109C48.0195 59.482 48.2286 60.6438 48.6382 61.741H10.2902ZM61.741 58.3109C61.741 59.2206 61.3796 60.0931 60.7364 60.7363C60.0931 61.3796 59.2207 61.741 58.311 61.741C57.4013 61.741 56.5288 61.3796 55.8856 60.7363C55.2423 60.0931 54.8809 59.2206 54.8809 58.3109V41.1606H61.741V58.3109Z" fill="#022454"/>
<path d="M17.1527 48.0205H37.733C38.6428 48.0205 39.5152 48.3819 40.1585 49.0252C40.8017 49.6684 41.1631 50.5409 41.1631 51.4506C41.1631 52.3603 40.8017 53.2327 40.1585 53.876C39.5152 54.5193 38.6428 54.8806 37.733 54.8806H17.1527C16.243 54.8806 15.3706 54.5193 14.7273 53.876C14.084 53.2327 13.7227 52.3603 13.7227 51.4506C13.7227 50.5409 14.084 49.6684 14.7273 49.0252C15.3706 48.3819 16.243 48.0205 17.1527 48.0205Z" fill="#E64E2E"/>
<path d="M30.8729 27.4402H24.0128C23.1031 27.4402 22.2307 27.0788 21.5874 26.4355C20.9441 25.7923 20.5828 24.9198 20.5828 24.0101C20.5828 23.1004 20.9441 22.228 21.5874 21.5847C22.2307 20.9415 23.1031 20.5801 24.0128 20.5801H30.8729C31.7826 20.5801 32.6551 20.9415 33.2983 21.5847C33.9416 22.228 34.303 23.1004 34.303 24.0101C34.303 24.9198 33.9416 25.7923 33.2983 26.4355C32.6551 27.0788 31.7826 27.4402 30.8729 27.4402Z" fill="#E64E2E"/>
<path d="M17.1527 34.3003H37.733C38.6428 34.3003 39.5152 34.6617 40.1585 35.3049C40.8017 35.9482 41.1631 36.8207 41.1631 37.7304C41.1631 38.6401 40.8017 39.5125 40.1585 40.1558C39.5152 40.799 38.6428 41.1604 37.733 41.1604H17.1527C16.243 41.1604 15.3706 40.799 14.7273 40.1558C14.084 39.5125 13.7227 38.6401 13.7227 37.7304C13.7227 36.8207 14.084 35.9482 14.7273 35.3049C15.3706 34.6617 16.243 34.3003 17.1527 34.3003Z" fill="#E64E2E"/>
</g>
<defs>
<clipPath id="clip0_809_2770">
<rect width="68.6011" height="68.6011" fill="white"/>
</clipPath>
</defs>
</svg>
