<svg width="452" height="823" viewBox="0 0 452 823" fill="none" xmlns="http://www.w3.org/2000/svg">
<g opacity="0.54" clip-path="url(#clip0_944_2754)">
<path d="M2.60156 562.937L62.978 535.443C81.4577 527.006 97.5042 514.037 109.627 497.738C121.75 481.44 129.557 462.341 132.322 442.216C135.113 422.099 142.93 403.012 155.05 386.718C167.17 370.423 183.202 357.447 201.666 348.989V348.989C220.146 340.552 236.193 327.582 248.316 311.284C260.439 294.986 268.245 275.887 271.011 255.762C273.814 235.649 281.636 216.568 293.754 200.276C305.873 183.983 321.899 171.004 340.355 162.535C358.834 154.098 374.881 141.128 387.004 124.83C399.127 108.531 406.934 89.4327 409.699 69.3074L418.667 3.57449" stroke="#E64E2E" stroke-width="2" stroke-linecap="round" stroke-linejoin="round"/>
<path d="M47.3047 596.19L107.681 568.696C126.161 560.259 142.207 547.29 154.33 530.991C166.454 514.693 174.26 495.594 177.025 475.469C179.816 455.352 187.633 436.265 199.753 419.971C211.873 403.676 227.906 390.7 246.369 382.242V382.242C264.849 373.805 280.896 360.835 293.019 344.537C305.142 328.239 312.949 309.14 315.714 289.015C318.518 268.902 326.339 249.821 338.458 233.529C350.576 217.236 366.602 204.257 385.058 195.787V195.787C403.537 187.351 419.584 174.381 431.707 158.083C443.83 141.784 451.637 122.686 454.402 102.56L463.37 36.8275" stroke="#E64E2E" stroke-width="2" stroke-linecap="round" stroke-linejoin="round"/>
<path d="M92.0664 629.486L152.443 601.992C170.923 593.555 186.969 580.586 199.092 564.287C211.215 547.989 219.022 528.89 221.787 508.765C224.578 488.648 232.395 469.561 244.515 453.267C256.635 436.972 272.667 423.996 291.131 415.538V415.538C309.611 407.101 325.657 394.132 337.78 377.833C349.904 361.535 357.71 342.436 360.475 322.311C363.279 302.198 371.101 283.117 383.219 266.825C395.338 250.532 411.364 237.553 429.819 229.084V229.084C448.299 220.647 464.346 207.677 476.469 191.379C488.592 175.08 496.399 155.982 499.164 135.857L508.131 70.1236" stroke="#E64E2E" stroke-width="2" stroke-linecap="round" stroke-linejoin="round"/>
<path d="M136.66 662.653L197.037 635.159C215.516 626.722 231.563 613.753 243.686 597.454C255.809 581.156 263.616 562.057 266.381 541.932C269.172 521.815 276.988 502.728 289.108 486.434C301.228 470.139 317.261 457.163 335.725 448.705V448.705C354.205 440.268 370.251 427.298 382.374 411C394.497 394.701 402.304 375.603 405.069 355.477C407.873 335.365 415.695 316.284 427.813 299.992C439.932 283.699 455.957 270.72 474.413 262.25V262.25C492.893 253.814 508.939 240.844 521.063 224.546C533.186 208.247 540.992 189.149 543.757 169.023L552.725 103.29" stroke="#E64E2E" stroke-width="2" stroke-linecap="round" stroke-linejoin="round"/>
</g>
<g opacity="0.54" clip-path="url(#clip1_944_2754)">
<path d="M176.715 692.447L237.091 664.953C255.571 656.517 271.617 643.547 283.741 627.248C295.864 610.95 303.67 591.851 306.435 571.726C309.226 551.609 317.043 532.522 329.163 516.228C341.283 499.934 357.316 486.958 375.78 478.499V478.499C394.259 470.062 410.306 457.093 422.429 440.794C434.552 424.496 442.359 405.397 445.124 385.272C447.928 365.16 455.749 346.078 467.868 329.786C479.986 313.494 496.012 300.515 514.468 292.045C532.948 283.608 548.994 270.639 561.117 254.34C573.24 238.042 581.047 218.943 583.812 198.818L592.78 133.085" stroke="#E64E2E" stroke-width="2" stroke-linecap="round" stroke-linejoin="round"/>
<path d="M221.418 725.7L281.794 698.206C300.274 689.77 316.321 676.8 328.444 660.501C340.567 644.203 348.373 625.104 351.139 604.979C353.93 584.862 361.746 565.775 373.866 549.481C385.986 533.187 402.019 520.211 420.483 511.752V511.752C438.962 503.315 455.009 490.346 467.132 474.047C479.255 457.749 487.062 438.65 489.827 418.525C492.631 398.413 500.452 379.331 512.571 363.039C524.689 346.747 540.715 333.768 559.171 325.298V325.298C577.651 316.861 593.697 303.892 605.82 287.593C617.943 271.295 625.75 252.196 628.515 232.071L637.483 166.338" stroke="#E64E2E" stroke-width="2" stroke-linecap="round" stroke-linejoin="round"/>
<path d="M266.18 758.996L326.556 731.502C345.036 723.066 361.082 710.096 373.205 693.798C385.329 677.499 393.135 658.4 395.9 638.275C398.691 618.159 406.508 599.071 418.628 582.777C430.748 566.483 446.781 553.507 465.244 545.048V545.048C483.724 536.612 499.771 523.642 511.894 507.343C524.017 491.045 531.824 471.946 534.589 451.821C537.393 431.709 545.214 412.627 557.333 396.335C569.451 380.043 585.477 367.064 603.933 358.594V358.594C622.412 350.157 638.459 337.188 650.582 320.889C662.705 304.591 670.512 285.492 673.277 265.367L682.245 199.634" stroke="#E64E2E" stroke-width="2" stroke-linecap="round" stroke-linejoin="round"/>
<path d="M310.773 792.163L371.15 764.669C389.63 756.233 405.676 743.263 417.799 726.964C429.922 710.666 437.729 691.567 440.494 671.442C443.285 651.325 451.102 632.238 463.222 615.944C475.342 599.65 491.374 586.674 509.838 578.215V578.215C528.318 569.778 544.364 556.809 556.488 540.51C568.611 524.212 576.417 505.113 579.182 484.988C581.986 464.876 589.808 445.794 601.926 429.502C614.045 413.21 630.071 400.231 648.527 391.761V391.761C667.006 383.324 683.053 370.355 695.176 354.056C707.299 337.758 715.106 318.659 717.871 298.534L726.838 232.801" stroke="#E64E2E" stroke-width="2" stroke-linecap="round" stroke-linejoin="round"/>
</g>
<defs>
<clipPath id="clip0_944_2754">
<rect width="702" height="218" fill="white" transform="translate(0 563.266) rotate(-53.3574)"/>
</clipPath>
<clipPath id="clip1_944_2754">
<rect width="702" height="218" fill="white" transform="translate(174.113 692.777) rotate(-53.3574)"/>
</clipPath>
</defs>
</svg>
