<svg  viewBox="0 0 19 32" fill="none" xmlns="http://www.w3.org/2000/svg">
<path d="M13.4404 0.03125C11.2427 0.03125 9.13497 0.883982 7.58095 2.40185C6.02694 3.91973 5.15391 5.9784 5.15391 8.125V12.6312H0.719531C0.496891 12.6312 0.316406 12.8075 0.316406 13.025V18.975C0.316406 19.1925 0.496891 19.3687 0.719531 19.3687H5.15391V31.575C5.15391 31.7925 5.33439 31.9688 5.55703 31.9688H11.6487C11.8713 31.9688 12.0518 31.7925 12.0518 31.575V19.3687H16.5255C16.7105 19.3687 16.8717 19.2458 16.9166 19.0705L18.4395 13.1205C18.5031 12.872 18.3107 12.6312 18.0484 12.6312H12.0518V8.125C12.0518 7.7653 12.1981 7.42033 12.4585 7.16599C12.7189 6.91164 13.0721 6.76875 13.4404 6.76875H18.0987C18.3213 6.76875 18.5018 6.59246 18.5018 6.375V0.425C18.5018 0.207538 18.3213 0.03125 18.0987 0.03125H13.4404Z" fill="white"/>
</svg>
