<svg width="12" height="22" viewBox="0 0 12 22" fill="none" xmlns="http://www.w3.org/2000/svg">
<path d="M8.56536 0.354187C7.1343 0.354187 5.76185 0.922675 4.74993 1.93459C3.73802 2.94651 3.16953 4.31896 3.16953 5.75002V8.75419H0.282031C0.137056 8.75419 0.0195312 8.87171 0.0195312 9.01669V12.9834C0.0195312 13.1283 0.137056 13.2459 0.282031 13.2459H3.16953V21.3834C3.16953 21.5283 3.28706 21.6459 3.43203 21.6459H7.3987C7.54367 21.6459 7.6612 21.5283 7.6612 21.3834V13.2459H10.5743C10.6947 13.2459 10.7997 13.1639 10.8289 13.047L11.8206 9.08035C11.862 8.91468 11.7367 8.75419 11.5659 8.75419H7.6612V5.75002C7.6612 5.51022 7.75646 5.28024 7.92602 5.11068C8.09559 4.94111 8.32556 4.84585 8.56536 4.84585H11.5987C11.7437 4.84585 11.8612 4.72833 11.8612 4.58335V0.616687C11.8612 0.471712 11.7437 0.354187 11.5987 0.354187H8.56536Z" fill="#022454"/>
</svg>
