<svg width="280" height="568" viewBox="0 0 280 568" fill="none" xmlns="http://www.w3.org/2000/svg">
<g opacity="0.54">
<rect width="568" height="568" fill="white"/>
<path d="M283.952 564.437C438.859 564.437 564.436 438.86 564.436 283.953C564.436 129.046 438.859 3.46973 283.952 3.46973C129.045 3.46973 3.46875 129.046 3.46875 283.953C3.46875 438.86 129.045 564.437 283.952 564.437Z" stroke="#E64E2E" stroke-width="2" stroke-miterlimit="10"/>
<path d="M283.956 507.327C407.322 507.327 507.33 407.319 507.33 283.953C507.33 160.587 407.322 60.5792 283.956 60.5792C160.59 60.5792 60.582 160.587 60.582 283.953C60.582 407.319 160.59 507.327 283.956 507.327Z" stroke="#E64E2E" stroke-width="2" stroke-miterlimit="10"/>
<path d="M283.952 450.218C375.777 450.218 450.216 375.779 450.216 283.953C450.216 192.128 375.777 117.689 283.952 117.689C192.127 117.689 117.688 192.128 117.688 283.953C117.688 375.779 192.127 450.218 283.952 450.218Z" stroke="#E64E2E" stroke-width="2" stroke-miterlimit="10"/>
<path d="M283.952 393.202C344.288 393.202 393.201 344.29 393.201 283.953C393.201 223.617 344.288 174.704 283.952 174.704C223.616 174.704 174.703 223.617 174.703 283.953C174.703 344.29 223.616 393.202 283.952 393.202Z" stroke="#E64E2E" stroke-width="2" stroke-miterlimit="10"/>
<path d="M283.956 336.092C312.752 336.092 336.095 312.749 336.095 283.953C336.095 255.157 312.752 231.814 283.956 231.814C255.16 231.814 231.816 255.157 231.816 283.953C231.816 312.749 255.16 336.092 283.956 336.092Z" stroke="#E64E2E" stroke-width="2" stroke-miterlimit="10"/>
</g>
</svg>
