<svg width="22" height="22" viewBox="0 0 22 22" fill="none" xmlns="http://www.w3.org/2000/svg">
<path d="M11.0014 7.20831C8.90735 7.20831 7.20977 8.90589 7.20977 11C7.20977 13.0941 8.90735 14.7916 11.0014 14.7916C13.0955 14.7916 14.7931 13.0941 14.7931 11C14.7931 8.90589 13.0955 7.20831 11.0014 7.20831Z" fill="#022454"/>
<path fill-rule="evenodd" clip-rule="evenodd" d="M4.89923 0.595018C8.92204 0.145411 13.0809 0.145411 17.1037 0.595018C19.3185 0.842555 21.1049 2.58763 21.3648 4.81019C21.8458 8.92269 21.8458 13.0772 21.3648 17.1898C21.1049 19.4123 19.3185 21.1574 17.1037 21.4049C13.0809 21.8545 8.92204 21.8545 4.89923 21.4049C2.68443 21.1574 0.898038 19.4123 0.63809 17.1898C0.157095 13.0772 0.157095 8.9227 0.63809 4.81019C0.898039 2.58763 2.68443 0.842555 4.89923 0.595018ZM16.8348 3.99997C16.1904 3.99997 15.6681 4.52231 15.6681 5.16664C15.6681 5.81097 16.1904 6.33331 16.8348 6.33331C17.4791 6.33331 18.0014 5.81097 18.0014 5.16664C18.0014 4.52231 17.4791 3.99997 16.8348 3.99997ZM5.45977 11C5.45977 7.93939 7.94086 5.45831 11.0014 5.45831C14.062 5.45831 16.5431 7.93939 16.5431 11C16.5431 14.0605 14.062 16.5416 11.0014 16.5416C7.94086 16.5416 5.45977 14.0605 5.45977 11Z" fill="#022454"/>
</svg>
