<svg  viewBox="0 0 33 34" fill="none" xmlns="http://www.w3.org/2000/svg">
<path d="M16.5004 11.3125C13.2845 11.3125 10.6775 13.8588 10.6775 17C10.6775 20.1411 13.2845 22.6875 16.5004 22.6875C19.7163 22.6875 22.3233 20.1411 22.3233 17C22.3233 13.8588 19.7163 11.3125 16.5004 11.3125Z" fill="white"/>
<path fill-rule="evenodd" clip-rule="evenodd" d="M7.12914 1.39253C13.307 0.718116 19.6938 0.718116 25.8717 1.39253C29.273 1.76383 32.0164 4.38144 32.4156 7.71529C33.1542 13.884 33.1542 20.1159 32.4156 26.2846C32.0164 29.6185 29.273 32.2361 25.8717 32.6074C19.6938 33.2818 13.307 33.2818 7.12915 32.6074C3.72785 32.2361 0.98446 29.6185 0.585253 26.2846C-0.153418 20.1159 -0.153418 13.884 0.585253 7.71529C0.98446 4.38144 3.72785 1.76383 7.12914 1.39253ZM25.4587 6.49996C24.4692 6.49996 23.6671 7.28346 23.6671 8.24996C23.6671 9.21646 24.4692 9.99996 25.4587 9.99996C26.4482 9.99996 27.2504 9.21646 27.2504 8.24996C27.2504 7.28346 26.4482 6.49996 25.4587 6.49996ZM7.98997 17C7.98997 12.4091 11.8002 8.68746 16.5004 8.68746C21.2006 8.68746 25.0108 12.4091 25.0108 17C25.0108 21.5908 21.2006 25.3125 16.5004 25.3125C11.8002 25.3125 7.98997 21.5908 7.98997 17Z" fill="white"/>
</svg>
