<svg  viewBox="0 0 33 34" fill="none" xmlns="http://www.w3.org/2000/svg">
<path d="M3.71875 0C1.66494 0 0 1.66494 0 3.71875C0 5.77256 1.66494 7.4375 3.71875 7.4375C5.77256 7.4375 7.4375 5.77256 7.4375 3.71875C7.4375 1.66494 5.77256 0 3.71875 0Z" fill="white"/>
<path d="M0.21875 10.5C0.0979377 10.5 0 10.5979 0 10.7188V33.4688C0 33.5896 0.0979377 33.6875 0.21875 33.6875H7.21875C7.33956 33.6875 7.4375 33.5896 7.4375 33.4688V10.7188C7.4375 10.5979 7.33956 10.5 7.21875 10.5H0.21875Z" fill="white"/>
<path d="M11.5938 10.5C11.4729 10.5 11.375 10.5979 11.375 10.7188V33.4688C11.375 33.5896 11.4729 33.6875 11.5938 33.6875H18.5938C18.7146 33.6875 18.8125 33.5896 18.8125 33.4688V21.2188C18.8125 20.3485 19.1582 19.5139 19.7736 18.8986C20.3889 18.2832 21.2235 17.9375 22.0938 17.9375C22.964 17.9375 23.7986 18.2832 24.4139 18.8986C25.0293 19.5139 25.375 20.3485 25.375 21.2188V33.4688C25.375 33.5896 25.4729 33.6875 25.5938 33.6875H32.5938C32.7146 33.6875 32.8125 33.5896 32.8125 33.4688V18.3842C32.8125 14.1374 29.1189 10.815 24.8935 11.1991C23.5903 11.3176 22.3019 11.6415 21.0988 12.1572L18.8125 13.137V10.7188C18.8125 10.5979 18.7146 10.5 18.5938 10.5H11.5938Z" fill="white"/>
</svg>
