<svg width="22" height="23" viewBox="0 0 22 23" fill="none" xmlns="http://www.w3.org/2000/svg">
<path d="M2.54167 0.1875C1.17246 0.1875 0.0625 1.29746 0.0625 2.66667C0.0625 4.03587 1.17246 5.14583 2.54167 5.14583C3.91087 5.14583 5.02083 4.03587 5.02083 2.66667C5.02083 1.29746 3.91087 0.1875 2.54167 0.1875Z" fill="#022454"/>
<path d="M0.208333 7.1875C0.127792 7.1875 0.0625 7.25279 0.0625 7.33333V22.5C0.0625 22.5805 0.127792 22.6458 0.208333 22.6458H4.875C4.95554 22.6458 5.02083 22.5805 5.02083 22.5V7.33333C5.02083 7.25279 4.95554 7.1875 4.875 7.1875H0.208333Z" fill="#022454"/>
<path d="M7.79167 7.1875C7.71112 7.1875 7.64583 7.25279 7.64583 7.33333V22.5C7.64583 22.5805 7.71112 22.6458 7.79167 22.6458H12.4583C12.5389 22.6458 12.6042 22.5805 12.6042 22.5V14.3333C12.6042 13.7532 12.8346 13.1968 13.2449 12.7865C13.6551 12.3763 14.2115 12.1458 14.7917 12.1458C15.3718 12.1458 15.9282 12.3763 16.3385 12.7865C16.7487 13.1968 16.9792 13.7532 16.9792 14.3333V22.5C16.9792 22.5805 17.0445 22.6458 17.125 22.6458H21.7917C21.8722 22.6458 21.9375 22.5805 21.9375 22.5V12.4436C21.9375 9.61242 19.4751 7.39749 16.6581 7.65358C15.7894 7.73256 14.9304 7.94853 14.1284 8.29227L12.6042 8.94551V7.33333C12.6042 7.25279 12.5389 7.1875 12.4583 7.1875H7.79167Z" fill="#022454"/>
</svg>
