<svg width="40" height="40" viewBox="0 0 68 76" fill="none" xmlns="http://www.w3.org/2000/svg">
<g clip-path="url(#clip0_809_2784)">
<path d="M64.2205 37.981H60.4427V11.3943C60.4427 10.387 60.0447 9.42092 59.3362 8.70864C58.6278 7.99636 57.6669 7.5962 56.6649 7.5962H30.2205V3.7981C30.2205 2.79078 29.8225 1.82472 29.114 1.11244C28.4055 0.400156 27.4446 0 26.4427 0C25.4408 0 24.4799 0.400156 23.7714 1.11244C23.0629 1.82472 22.6649 2.79078 22.6649 3.7981V7.5962H18.8872C17.8852 7.5962 16.9243 7.99636 16.2159 8.70864C15.5074 9.42092 15.1094 10.387 15.1094 11.3943C15.1094 12.4016 15.5074 13.3677 16.2159 14.08C16.9243 14.7922 17.8852 15.1924 18.8872 15.1924H22.6649V41.7791C22.6649 42.7864 23.0629 43.7525 23.7714 44.4648C24.4799 45.1771 25.4408 45.5772 26.4427 45.5772H52.8872V49.3753C52.8872 50.3826 53.2852 51.3487 53.9936 52.061C54.7021 52.7733 55.663 53.1734 56.6649 53.1734C57.6669 53.1734 58.6278 52.7733 59.3362 52.061C60.0447 51.3487 60.4427 50.3826 60.4427 49.3753V45.5772H64.2205C65.2224 45.5772 66.1833 45.1771 66.8918 44.4648C67.6003 43.7525 67.9983 42.7864 67.9983 41.7791C67.9983 40.7718 67.6003 39.8057 66.8918 39.0934C66.1833 38.3812 65.2224 37.981 64.2205 37.981ZM52.8872 37.981H30.2205V15.1924H52.8872V37.981Z" fill="#022454"/>
<path d="M24.1183 53.4481C24.5785 53.6398 24.9967 53.9207 25.3489 54.2748L32.8667 61.871C33.5703 62.5826 33.9652 63.5453 33.9652 64.5487C33.9652 65.5521 33.5703 66.5147 32.8667 67.2263L25.3111 74.8225C24.6033 75.5299 23.6458 75.927 22.6478 75.927C21.6497 75.927 20.6923 75.5299 19.9844 74.8225C19.2808 74.1109 18.8859 73.1483 18.8859 72.1449C18.8859 71.1415 19.2808 70.1788 19.9844 69.4672L21.1178 68.3658H18.8889C13.8792 68.3658 9.07478 66.365 5.53243 62.8036C1.99007 59.2422 0 54.4119 0 49.3753V41.7791C0 40.7717 0.398015 39.8057 1.10649 39.0934C1.81496 38.3811 2.77585 37.981 3.77778 37.981C4.77971 37.981 5.7406 38.3811 6.44907 39.0934C7.15754 39.8057 7.55555 40.7717 7.55555 41.7791V49.3753C7.55555 52.3972 8.7496 55.2954 10.875 57.4322C13.0004 59.5691 15.8831 60.7696 18.8889 60.7696H21.1178L19.9844 59.6681C19.6322 59.314 19.3528 58.8936 19.1622 58.4309C18.9715 57.9682 18.8734 57.4723 18.8734 56.9715C18.8734 56.4706 18.9715 55.9747 19.1622 55.512C19.3528 55.0494 19.6322 54.6289 19.9844 54.2748C20.3367 53.9207 20.7548 53.6398 21.2151 53.4481C21.6753 53.2565 22.1685 53.1578 22.6667 53.1578C23.1648 53.1578 23.6581 53.2565 24.1183 53.4481Z" fill="#E64E2E"/>
</g>
<defs>
<clipPath id="clip0_809_2784">
<rect width="68" height="76" fill="white"/>
</clipPath>
</defs>
</svg>
