<svg width="372" height="652" viewBox="0 0 372 652" fill="none" xmlns="http://www.w3.org/2000/svg">
<g opacity="0.54" clip-path="url(#clip0_516_1972)">
<path d="M218.72 635.836C218.72 638.734 217.859 641.566 216.247 643.975C214.634 646.385 212.343 648.263 209.661 649.371C206.98 650.48 204.029 650.77 201.183 650.205C198.336 649.64 195.721 648.244 193.669 646.196C191.617 644.147 190.219 641.536 189.653 638.694C189.087 635.853 189.377 632.907 190.488 630.23C191.599 627.553 193.48 625.265 195.893 623.655C198.306 622.045 201.143 621.186 204.046 621.186C207.937 621.186 211.67 622.729 214.422 625.477C217.174 628.224 218.72 631.951 218.72 635.836V635.836Z" stroke="#E64E2E" stroke-width="2" stroke-miterlimit="10"/>
<path d="M312.708 635.836C312.72 638.751 311.865 641.603 310.25 644.032C308.636 646.46 306.335 648.355 303.64 649.476C300.945 650.597 297.977 650.894 295.114 650.328C292.25 649.762 289.618 648.36 287.554 646.299C285.49 644.238 284.085 641.611 283.519 638.752C282.952 635.892 283.249 632.93 284.371 630.239C285.494 627.549 287.392 625.252 289.825 623.64C292.257 622.028 295.114 621.174 298.034 621.186C301.921 621.202 305.644 622.75 308.393 625.494C311.141 628.238 312.692 631.956 312.708 635.836V635.836Z" stroke="#E64E2E" stroke-width="2" stroke-miterlimit="10"/>
<path d="M124.79 547.268C124.79 550.166 123.93 552.998 122.317 555.408C120.705 557.817 118.413 559.695 115.731 560.804C113.05 561.912 110.099 562.202 107.253 561.637C104.406 561.072 101.792 559.677 99.7394 557.628C97.6872 555.579 96.2896 552.968 95.7234 550.127C95.1572 547.285 95.4477 544.339 96.5584 541.662C97.669 538.985 99.5498 536.697 101.963 535.087C104.376 533.477 107.213 532.618 110.116 532.618C114.008 532.618 117.74 534.162 120.492 536.909C123.244 539.656 124.79 543.383 124.79 547.268Z" stroke="#E64E2E" stroke-width="2" stroke-miterlimit="10"/>
<path d="M218.72 547.268C218.72 550.166 217.859 552.998 216.247 555.408C214.634 557.817 212.343 559.695 209.661 560.804C206.98 561.912 204.029 562.202 201.183 561.637C198.336 561.072 195.721 559.677 193.669 557.628C191.617 555.579 190.219 552.968 189.653 550.127C189.087 547.285 189.377 544.339 190.488 541.662C191.599 538.985 193.48 536.697 195.893 535.087C198.306 533.477 201.143 532.618 204.046 532.618C207.937 532.618 211.67 534.162 214.422 536.909C217.174 539.656 218.72 543.383 218.72 547.268Z" stroke="#E64E2E" stroke-width="2" stroke-miterlimit="10"/>
<path d="M312.708 547.268C312.72 550.183 311.865 553.035 310.25 555.464C308.636 557.892 306.335 559.787 303.64 560.908C300.945 562.029 297.977 562.326 295.114 561.76C292.25 561.194 289.618 559.792 287.554 557.731C285.49 555.67 284.085 553.043 283.519 550.184C282.952 547.325 283.249 544.362 284.371 541.671C285.494 538.981 287.392 536.684 289.825 535.072C292.257 533.46 295.114 532.606 298.034 532.618C301.926 532.618 305.658 534.161 308.41 536.909C311.162 539.656 312.708 543.383 312.708 547.268Z" stroke="#E64E2E" stroke-width="2" stroke-miterlimit="10"/>
<path d="M124.79 458.64C124.79 461.538 123.93 464.37 122.317 466.779C120.705 469.188 118.413 471.066 115.731 472.175C113.05 473.284 110.099 473.574 107.253 473.009C104.406 472.444 101.792 471.048 99.7394 468.999C97.6872 466.951 96.2896 464.34 95.7234 461.498C95.1572 458.656 95.4477 455.711 96.5584 453.034C97.669 450.357 99.5498 448.069 101.963 446.459C104.376 444.849 107.213 443.99 110.116 443.99C114.008 443.99 117.74 445.533 120.492 448.281C123.244 451.028 124.79 454.754 124.79 458.64Z" stroke="#E64E2E" stroke-width="2" stroke-miterlimit="10"/>
<path d="M218.72 458.64C218.72 461.538 217.859 464.37 216.247 466.779C214.634 469.188 212.343 471.066 209.661 472.175C206.98 473.284 204.029 473.574 201.183 473.009C198.336 472.444 195.721 471.048 193.669 468.999C191.617 466.951 190.219 464.34 189.653 461.498C189.087 458.656 189.377 455.711 190.488 453.034C191.599 450.357 193.48 448.069 195.893 446.459C198.306 444.849 201.143 443.99 204.046 443.99C207.937 443.99 211.67 445.533 214.422 448.281C217.174 451.028 218.72 454.754 218.72 458.64Z" stroke="#E64E2E" stroke-width="2" stroke-miterlimit="10"/>
<path d="M312.708 458.64C312.72 461.555 311.865 464.407 310.25 466.836C308.636 469.264 306.335 471.159 303.64 472.28C300.945 473.401 297.977 473.697 295.114 473.131C292.25 472.566 289.618 471.163 287.554 469.102C285.49 467.041 284.085 464.415 283.519 461.555C282.952 458.696 283.249 455.733 284.371 453.043C285.494 450.352 287.392 448.055 289.825 446.444C292.257 444.832 295.114 443.978 298.034 443.99C301.926 443.99 305.658 445.533 308.41 448.28C311.162 451.028 312.708 454.754 312.708 458.64Z" stroke="#E64E2E" stroke-width="2" stroke-miterlimit="10"/>
<path d="M30.8645 370.254C30.8645 373.151 30.0037 375.984 28.3913 378.393C26.7788 380.802 24.487 382.68 21.8056 383.789C19.1242 384.898 16.1738 385.188 13.3273 384.622C10.4807 384.057 7.86602 382.662 5.81377 380.613C3.76152 378.564 2.36379 375.954 1.79757 373.112C1.23136 370.27 1.52205 367.324 2.63272 364.647C3.74339 361.97 5.62417 359.682 8.03736 358.072C10.4506 356.463 13.2877 355.603 16.19 355.603C20.0819 355.603 23.8145 357.147 26.5665 359.894C29.3185 362.642 30.8645 366.368 30.8645 370.254V370.254Z" stroke="#E64E2E" stroke-width="2" stroke-miterlimit="10"/>
<path d="M124.79 370.254C124.814 373.156 123.974 376.001 122.376 378.426C120.778 380.851 118.495 382.747 115.816 383.875C113.136 385.002 110.182 385.31 107.328 384.758C104.473 384.207 101.847 382.821 99.7827 380.777C97.7183 378.733 96.3085 376.123 95.7324 373.278C95.1563 370.433 95.4396 367.481 96.5466 364.797C97.6537 362.113 99.5344 359.817 101.95 358.202C104.366 356.587 107.208 355.725 110.115 355.724C113.986 355.724 117.701 357.251 120.449 359.973C123.198 362.694 124.758 366.389 124.79 370.254V370.254Z" stroke="#E64E2E" stroke-width="2" stroke-miterlimit="10"/>
<path d="M218.72 370.254C218.72 373.151 217.859 375.984 216.247 378.393C214.634 380.802 212.343 382.68 209.661 383.789C206.98 384.898 204.029 385.188 201.183 384.622C198.336 384.057 195.721 382.662 193.669 380.613C191.617 378.564 190.219 375.954 189.653 373.112C189.087 370.27 189.377 367.324 190.488 364.647C191.599 361.97 193.48 359.682 195.893 358.072C198.306 356.463 201.143 355.603 204.046 355.603C207.937 355.603 211.67 357.147 214.422 359.894C217.174 362.642 218.72 366.368 218.72 370.254V370.254Z" stroke="#E64E2E" stroke-width="2" stroke-miterlimit="10"/>
<path d="M312.708 370.254C312.72 373.168 311.865 376.021 310.25 378.449C308.636 380.878 306.335 382.773 303.64 383.894C300.945 385.014 297.977 385.311 295.114 384.745C292.25 384.179 289.618 382.777 287.554 380.716C285.49 378.655 284.085 376.028 283.519 373.169C282.952 370.31 283.249 367.347 284.371 364.657C285.494 361.966 287.392 359.669 289.825 358.057C292.257 356.445 295.114 355.591 298.034 355.603C301.926 355.603 305.658 357.147 308.41 359.894C311.162 362.642 312.708 366.368 312.708 370.254V370.254Z" stroke="#E64E2E" stroke-width="2" stroke-miterlimit="10"/>
<path d="M30.8645 281.746C30.8645 284.644 30.0037 287.476 28.3913 289.886C26.7788 292.295 24.487 294.173 21.8056 295.281C19.1242 296.39 16.1738 296.68 13.3273 296.115C10.4807 295.55 7.86602 294.155 5.81377 292.106C3.76152 290.057 2.36379 287.446 1.79757 284.604C1.23136 281.762 1.52205 278.817 2.63272 276.14C3.74339 273.463 5.62417 271.175 8.03736 269.565C10.4506 267.955 13.2877 267.096 16.19 267.096C20.077 267.112 23.8002 268.661 26.5487 271.405C29.2973 274.149 30.8486 277.866 30.8645 281.746V281.746Z" stroke="#E64E2E" stroke-width="2" stroke-miterlimit="10"/>
<path d="M124.79 281.746C124.79 284.644 123.93 287.476 122.317 289.886C120.705 292.295 118.413 294.173 115.731 295.281C113.05 296.39 110.099 296.68 107.253 296.115C104.406 295.55 101.792 294.155 99.7394 292.106C97.6872 290.057 96.2896 287.446 95.7234 284.604C95.1572 281.762 95.4477 278.817 96.5584 276.14C97.669 273.463 99.5498 271.175 101.963 269.565C104.376 267.955 107.213 267.096 110.116 267.096C114.008 267.096 117.74 268.639 120.492 271.387C123.244 274.134 124.79 277.861 124.79 281.746Z" stroke="#E64E2E" stroke-width="2" stroke-miterlimit="10"/>
<path d="M218.72 281.746C218.72 284.644 217.859 287.476 216.247 289.886C214.634 292.295 212.343 294.173 209.661 295.281C206.98 296.39 204.029 296.68 201.183 296.115C198.336 295.55 195.721 294.155 193.669 292.106C191.617 290.057 190.219 287.446 189.653 284.604C189.087 281.762 189.377 278.817 190.488 276.14C191.599 273.463 193.48 271.175 195.893 269.565C198.306 267.955 201.143 267.096 204.046 267.096C207.937 267.096 211.67 268.639 214.422 271.387C217.174 274.134 218.72 277.861 218.72 281.746Z" stroke="#E64E2E" stroke-width="2" stroke-miterlimit="10"/>
<path d="M312.708 281.746C312.72 284.661 311.865 287.513 310.25 289.942C308.636 292.37 306.335 294.265 303.64 295.386C300.945 296.507 297.977 296.803 295.114 296.238C292.25 295.672 289.618 294.27 287.554 292.209C285.49 290.148 284.085 287.521 283.519 284.662C282.952 281.803 283.249 278.84 284.371 276.149C285.494 273.459 287.392 271.162 289.825 269.55C292.257 267.938 295.114 267.084 298.034 267.096C301.921 267.112 305.644 268.661 308.393 271.405C311.141 274.149 312.692 277.866 312.708 281.746V281.746Z" stroke="#E64E2E" stroke-width="2" stroke-miterlimit="10"/>
<path d="M124.79 193.178C124.79 196.076 123.93 198.908 122.317 201.318C120.705 203.727 118.413 205.605 115.731 206.714C113.05 207.823 110.099 208.113 107.253 207.547C104.406 206.982 101.792 205.587 99.7394 203.538C97.6872 201.489 96.2896 198.879 95.7234 196.037C95.1572 193.195 95.4477 190.249 96.5584 187.572C97.669 184.895 99.5498 182.607 101.963 180.997C104.376 179.387 107.213 178.528 110.116 178.528C114.008 178.528 117.74 180.072 120.492 182.819C123.244 185.567 124.79 189.293 124.79 193.178Z" stroke="#E64E2E" stroke-width="2" stroke-miterlimit="10"/>
<path d="M218.72 193.178C218.72 196.076 217.859 198.908 216.247 201.318C214.634 203.727 212.343 205.605 209.661 206.714C206.98 207.823 204.029 208.113 201.183 207.547C198.336 206.982 195.721 205.587 193.669 203.538C191.617 201.489 190.219 198.879 189.653 196.037C189.087 193.195 189.377 190.249 190.488 187.572C191.599 184.895 193.48 182.607 195.893 180.997C198.306 179.387 201.143 178.528 204.046 178.528C207.937 178.528 211.67 180.072 214.422 182.819C217.174 185.567 218.72 189.293 218.72 193.178Z" stroke="#E64E2E" stroke-width="2" stroke-miterlimit="10"/>
<path d="M312.708 193.178C312.72 196.093 311.865 198.946 310.25 201.374C308.636 203.802 306.335 205.697 303.64 206.818C300.945 207.939 297.977 208.236 295.114 207.67C292.25 207.104 289.618 205.702 287.554 203.641C285.49 201.58 284.085 198.953 283.519 196.094C282.952 193.235 283.249 190.272 284.371 187.581C285.494 184.891 287.392 182.594 289.825 180.982C292.257 179.37 295.114 178.516 298.034 178.528C301.921 178.544 305.644 180.093 308.393 182.837C311.141 185.581 312.692 189.298 312.708 193.178V193.178Z" stroke="#E64E2E" stroke-width="2" stroke-miterlimit="10"/>
<path d="M124.79 104.671C124.79 107.569 123.93 110.401 122.317 112.81C120.705 115.22 118.413 117.097 115.731 118.206C113.05 119.315 110.099 119.605 107.253 119.04C104.406 118.475 101.792 117.079 99.7394 115.031C97.6872 112.982 96.2896 110.371 95.7234 107.529C95.1572 104.687 95.4477 101.742 96.5584 99.0648C97.669 96.3878 99.5498 94.0997 101.963 92.4899C104.376 90.8801 107.213 90.0208 110.116 90.0208C114.008 90.0208 117.74 91.5643 120.492 94.3117C123.244 97.0592 124.79 100.786 124.79 104.671V104.671Z" stroke="#E64E2E" stroke-width="2" stroke-miterlimit="10"/>
<path d="M218.72 104.671C218.72 107.569 217.859 110.401 216.247 112.81C214.634 115.22 212.343 117.097 209.661 118.206C206.98 119.315 204.029 119.605 201.183 119.04C198.336 118.475 195.721 117.079 193.669 115.031C191.617 112.982 190.219 110.371 189.653 107.529C189.087 104.687 189.377 101.742 190.488 99.0648C191.599 96.3878 193.48 94.0997 195.893 92.4899C198.306 90.8801 201.143 90.0208 204.046 90.0208C207.937 90.0208 211.67 91.5643 214.422 94.3117C217.174 97.0592 218.72 100.786 218.72 104.671V104.671Z" stroke="#E64E2E" stroke-width="2" stroke-miterlimit="10"/>
<path d="M312.708 104.671C312.72 107.586 311.865 110.438 310.25 112.867C308.636 115.295 306.335 117.19 303.64 118.311C300.945 119.432 297.977 119.728 295.114 119.163C292.25 118.597 289.618 117.195 287.554 115.134C285.49 113.073 284.085 110.446 283.519 107.587C282.952 104.727 283.249 101.764 284.371 99.0739C285.494 96.3834 287.392 94.0865 289.825 92.4747C292.257 90.8628 295.114 90.0087 298.034 90.0206C301.926 90.0206 305.658 91.5641 308.41 94.3116C311.162 97.0591 312.708 100.786 312.708 104.671V104.671Z" stroke="#E64E2E" stroke-width="2" stroke-miterlimit="10"/>
<path d="M218.72 16.1638C218.72 19.0614 217.859 21.8939 216.247 24.3031C214.634 26.7124 212.343 28.5901 209.661 29.6989C206.98 30.8078 204.029 31.098 201.183 30.5327C198.336 29.9674 195.721 28.572 193.669 26.5231C191.617 24.4742 190.219 21.8638 189.653 19.0219C189.087 16.18 189.377 13.2344 190.488 10.5574C191.599 7.88045 193.48 5.5924 195.893 3.9826C198.306 2.3728 201.143 1.51343 204.046 1.51343C207.937 1.51343 211.67 3.05694 214.422 5.80441C217.174 8.55188 218.72 12.2783 218.72 16.1638Z" stroke="#E64E2E" stroke-width="2" stroke-miterlimit="10"/>
<path d="M312.708 16.1637C312.72 19.0784 311.865 21.9309 310.25 24.3594C308.636 26.7878 306.335 28.6826 303.64 29.8035C300.945 30.9245 297.977 31.2209 295.114 30.6552C292.25 30.0895 289.618 28.6872 287.554 26.6262C285.49 24.5652 284.085 21.9385 283.519 19.0792C282.952 16.22 283.249 13.2571 284.371 10.5666C285.494 7.87604 287.392 5.57916 289.825 3.96733C292.257 2.35549 295.114 1.50134 298.034 1.51331C301.926 1.51331 305.658 3.05682 308.41 5.80429C311.162 8.55176 312.708 12.2782 312.708 16.1637Z" stroke="#E64E2E" stroke-width="2" stroke-miterlimit="10"/>
</g>
<defs>
<clipPath id="clip0_516_1972">
<rect width="690" height="652" fill="white"/>
</clipPath>
</defs>
</svg>
