<svg width="100" height="53" viewBox="0 0 133 53" fill="none" xmlns="http://www.w3.org/2000/svg">
<path d="M73.7605 29.5903V43.9607H66.9531V8.66553H80.2173C84.7543 8.66553 87.426 9.77177 89.3926 11.8397C91.1605 13.6473 92.1691 16.3803 92.1691 19.1532C92.1691 21.9261 91.1605 24.6483 89.3926 26.4631C87.4766 28.4804 84.7543 29.5903 80.2173 29.5903H73.7605ZM79.9064 23.5384C82.2273 23.5384 83.3878 22.9853 84.194 22.1285C84.9534 21.3257 85.3698 20.2582 85.3545 19.1532C85.3708 18.0329 84.9552 16.9493 84.194 16.1273C83.3878 15.2705 82.2273 14.7137 79.9064 14.7137H73.7605V23.5384H79.9064Z" fill="white"/>
<path d="M99.1234 34.5324C101.141 36.7521 104.217 38.4151 107.438 38.4151C110.464 38.4151 112.579 36.5496 112.579 33.9792C112.579 29.4385 106.025 28.8854 101.285 26.1126C98.5124 24.4966 96.2927 22.078 96.2927 18.094C96.2927 11.7891 102.077 8.15949 107.941 8.15949C111.632 8.08068 115.241 9.25432 118.179 11.4891L114.654 16.5431C112.961 15.0714 110.799 14.2501 108.555 14.2258C105.981 14.2258 103.107 15.3357 103.107 18.0579C103.107 23.7555 119.376 21.9912 119.376 33.8925C119.376 40.1431 113.779 44.4814 107.446 44.4814C102.706 44.4814 98.3172 42.5147 94.6875 39.1851L99.1234 34.5324Z" fill="white"/>
<path d="M125.195 8.66553H132.003V43.9607H125.195V8.66553Z" fill="white"/>
<path d="M36.4122 24.6087C35.9675 24.6846 35.6349 24.7388 35.5373 24.7497L34.507 24.8472C30.8688 25.1728 27.2061 25.1074 23.5819 24.652C23.5819 24.652 12.2048 23.1734 7.37491 16.6769C7.37491 16.6769 1.63037 10.7733 8.91137 4.13217C10.6426 2.54179 12.5507 1.15533 14.5981 0C14.5981 0 10.3719 2.49449 9.99231 6.44229C9.99231 6.44229 9.16446 10.7408 14.9488 14.5982C17.3601 16.2033 20.2053 17.1288 23.0215 17.7C25.3982 18.2051 27.8221 18.4548 30.2519 18.4447C31.6563 18.3966 33.0567 18.265 34.4455 18.0507C35.6931 17.9481 36.9252 17.7055 38.1186 17.3276L36.3326 10.8673L46.8637 17.1216C46.8637 17.1216 42.0158 28.2022 40.783 28.5926L40.0165 23.9471C40.0093 23.9724 37.7281 24.3845 36.4122 24.6087Z" fill="white"/>
<path d="M19.361 48.4073C27.8676 50.4029 36.3524 49.0002 36.3524 49.0002C50.1661 46.8311 54.32 39.8754 54.32 39.8754C56.4168 37.24 57.6351 31.105 57.6351 31.105C55.0033 41.1155 37.7515 44.2137 37.7515 44.2137C26.9674 45.9164 18.8946 43.7256 18.8946 43.7256L18.8296 39.3512L12.7344 44.2751C12.7344 44.2751 15.9555 50.4752 19.8852 52.6262L19.361 48.4073Z" fill="white"/>
<path d="M57.4847 19.016C57.3063 18.4159 57.1316 17.8134 56.9605 17.2084L56.2772 14.8694C57.5028 24.2291 48.2406 27.9094 48.2406 27.9094C27.5653 37.9163 8.99402 26.8538 8.99402 26.8538C-0.886315 20.4151 2.14686 13.2896 2.14686 13.2896C2.14686 13.2896 0.29588 18.1665 0.0500463 21.1779C-0.133218 22.9321 0.189148 24.7021 0.979133 26.279C0.979133 26.279 2.86987 31.1775 11.0728 35.0639C11.0728 35.0639 20.1975 38.7442 28.3064 38.7152C36.4153 38.6863 43.0167 37.092 45.8582 35.9171C48.6998 34.7421 56.1941 31.3149 57.7233 25.0498C57.9275 24.2017 58.0367 23.3335 58.0487 22.4613C58.0089 21.9877 57.9655 21.5141 57.9221 21.0442C57.9004 20.7983 57.5931 19.3884 57.4847 19.016Z" fill="white"/>
</svg>
