<svg width="133" height="54" viewBox="0 0 133 54" fill="none">
<path d="M73.7605 30.2169V44.5873H66.9531V9.29211H80.2173C84.7543 9.29211 87.426 10.3984 89.3926 12.4662C91.1605 14.2738 92.1691 17.0069 92.1691 19.7798C92.1691 22.5526 91.1605 25.2749 89.3926 27.0897C87.4766 29.107 84.7543 30.2169 80.2173 30.2169H73.7605ZM79.9064 24.165C82.2273 24.165 83.3878 23.6119 84.194 22.7551C84.9534 21.9522 85.3698 20.8848 85.3545 19.7798C85.3708 18.6595 84.9552 17.5759 84.194 16.7539C83.3878 15.8971 82.2273 15.3403 79.9064 15.3403H73.7605V24.165H79.9064Z" fill="#022454"/>
<path d="M99.1234 35.1589C101.141 37.3786 104.217 39.0416 107.438 39.0416C110.464 39.0416 112.579 37.1762 112.579 34.6057C112.579 30.0651 106.025 29.5119 101.285 26.7391C98.5124 25.1231 96.2927 22.7045 96.2927 18.7206C96.2927 12.4157 102.077 8.78601 107.941 8.78601C111.632 8.70721 115.241 9.88084 118.179 12.1156L114.654 17.1697C112.961 15.698 110.799 14.8766 108.555 14.8523C105.981 14.8523 103.107 15.9622 103.107 18.6844C103.107 24.382 119.376 22.6178 119.376 34.519C119.376 40.7697 113.779 45.1079 107.446 45.1079C102.706 45.1079 98.3172 43.1412 94.6875 39.8116L99.1234 35.1589Z" fill="#022454"/>
<path d="M125.195 9.29211H132.003V44.5873H125.195V9.29211Z" fill="#022454"/>
<path d="M36.4122 25.2351C35.9675 25.311 35.6349 25.3653 35.5373 25.3761L34.507 25.4737C30.8688 25.7993 27.2061 25.7339 23.5819 25.2785C23.5819 25.2785 12.2048 23.7999 7.37491 17.3034C7.37491 17.3034 1.63037 11.3998 8.91137 4.75863C10.6426 3.16825 12.5507 1.7818 14.5981 0.626465C14.5981 0.626465 10.3719 3.12095 9.99231 7.06875C9.99231 7.06875 9.16446 11.3672 14.9488 15.2246C17.3601 16.8298 20.2053 17.7553 23.0215 18.3265C25.3982 18.8316 27.8221 19.0813 30.2519 19.0712C31.6563 19.0231 33.0567 18.8915 34.4455 18.6771C35.6931 18.5745 36.9252 18.332 38.1186 17.9541L36.3326 11.4937L46.8637 17.748C46.8637 17.748 42.0158 28.8286 40.783 29.2191L40.0165 24.5735C40.0093 24.5988 37.7281 25.011 36.4122 25.2351Z" fill="#E64E2E"/>
<path d="M19.361 49.034C27.8676 51.0295 36.3524 49.6269 36.3524 49.6269C50.1661 47.4577 54.32 40.5021 54.32 40.5021C56.4168 37.8666 57.6351 31.7316 57.6351 31.7316C55.0033 41.7421 37.7515 44.8403 37.7515 44.8403C26.9674 46.5431 18.8946 44.3523 18.8946 44.3523L18.8296 39.9779L12.7344 44.9018C12.7344 44.9018 15.9555 51.1018 19.8852 53.2529L19.361 49.034Z" fill="#E64E2E"/>
<path d="M57.4847 19.6424C57.3063 19.0423 57.1316 18.4398 56.9605 17.8348L56.2772 15.4958C57.5028 24.8555 48.2406 28.5358 48.2406 28.5358C27.5653 38.5427 8.99402 27.4802 8.99402 27.4802C-0.886315 21.0415 2.14686 13.916 2.14686 13.916C2.14686 13.916 0.29588 18.7929 0.0500463 21.8043C-0.133218 23.5585 0.189148 25.3285 0.979133 26.9054C0.979133 26.9054 2.86987 31.8039 11.0728 35.6903C11.0728 35.6903 20.1975 39.3706 28.3064 39.3416C36.4153 39.3127 43.0167 37.7184 45.8582 36.5435C48.6998 35.3685 56.1941 31.9413 57.7233 25.6762C57.9275 24.8281 58.0367 23.9599 58.0487 23.0877C58.0089 22.6141 57.9655 22.1405 57.9221 21.6706C57.9004 21.4247 57.5931 20.0148 57.4847 19.6424Z" fill="#0186CD"/>
</svg>
