<svg width="40" height="40" viewBox="0 0 68 73" fill="none" xmlns="http://www.w3.org/2000/svg">
<g clip-path="url(#clip0_809_2760)">
<path d="M64.2222 49.9474H18.8889C17.887 49.9474 16.9261 49.5426 16.2176 48.822C15.5091 48.1015 15.1111 47.1243 15.1111 46.1053C15.1111 45.0863 15.5091 44.109 16.2176 43.3885C16.9261 42.668 17.887 42.2632 18.8889 42.2632H50.9622C53.4306 42.2667 55.8326 41.4506 57.8033 39.9388C59.7739 38.427 61.2053 36.3022 61.88 33.8874L68 12.5637C68.1536 12.0592 68.2032 11.5278 68.1458 11.0029C68.0884 10.478 67.9252 9.97076 67.6664 9.51287C67.4076 9.05497 67.0588 8.65625 66.6417 8.34162C66.2246 8.02699 65.7482 7.80319 65.2422 7.68421C64.9047 7.62544 64.5598 7.62544 64.2222 7.68421H17.9067C17.1273 5.44215 15.6851 3.50015 13.7778 2.12445C11.8705 0.748744 9.59157 0.00668339 7.25333 0H3.77778C2.77585 0 1.81496 0.404792 1.10649 1.12533C0.398015 1.84586 0 2.82312 0 3.84211C0 4.86109 0.398015 5.83835 1.10649 6.55888C1.81496 7.27942 2.77585 7.68421 3.77778 7.68421H7.25333C8.10124 7.65233 8.93502 7.91168 9.62034 8.42047C10.3057 8.92927 10.8026 9.65789 11.0311 10.4889L11.3333 12.5637L17.68 34.5789C14.6742 34.742 11.8552 36.1127 9.84316 38.3896C7.8311 40.6665 6.7908 43.663 6.95111 46.72C7.11142 49.777 8.45921 52.644 10.698 54.6903C12.9367 56.7366 15.8831 57.7946 18.8889 57.6316H64.2222C65.2242 57.6316 66.1851 57.2268 66.8935 56.5063C67.602 55.7857 68 54.8085 68 53.7895C68 52.7705 67.602 51.7932 66.8935 51.0727C66.1851 50.3522 65.2242 49.9474 64.2222 49.9474ZM59.1978 15.3684L54.5889 31.7742C54.3604 32.6053 53.8634 33.3339 53.1781 33.8427C52.4928 34.3515 51.659 34.6108 50.8111 34.5789H25.5L24.5556 31.1595L20.1356 15.3684H59.1978Z" fill="#022454"/>
<path d="M21.4066 62.445C22.3385 61.8117 23.4341 61.4737 24.5548 61.4737C26.0577 61.4737 27.4991 62.0809 28.5618 63.1617C29.6245 64.2425 30.2215 65.7084 30.2215 67.2369C30.2215 68.3767 29.8892 69.491 29.2665 70.4387C28.6438 71.3865 27.7588 72.1251 26.7234 72.5613C25.6879 72.9976 24.5486 73.1117 23.4493 72.8893C22.3501 72.6669 21.3404 72.118 20.5479 71.312C19.7554 70.5061 19.2157 69.4792 18.9971 68.3612C18.7784 67.2433 18.8906 66.0845 19.3195 65.0314C19.7484 63.9783 20.4747 63.0783 21.4066 62.445Z" fill="#E64E2E"/>
<path d="M51.6288 62.445C52.5607 61.8117 53.6563 61.4737 54.7771 61.4737C56.28 61.4737 57.7213 62.0809 58.784 63.1617C59.8467 64.2425 60.4437 65.7084 60.4437 67.2369C60.4437 68.3767 60.1114 69.491 59.4887 70.4387C58.8661 71.3865 57.9811 72.1251 56.9456 72.5613C55.9102 72.9976 54.7708 73.1117 53.6716 72.8893C52.5723 72.6669 51.5626 72.118 50.7701 71.312C49.9776 70.5061 49.4379 69.4792 49.2193 68.3612C49.0006 67.2433 49.1129 66.0845 49.5418 65.0314C49.9706 63.9783 50.697 63.0783 51.6288 62.445Z" fill="#E64E2E"/>
</g>
<defs>
<clipPath id="clip0_809_2760">
<rect width="68" height="73" fill="white"/>
</clipPath>
</defs>
</svg>
