<svg width="40" height="40" viewBox="0 0 69 69" fill="none" xmlns="http://www.w3.org/2000/svg">
<g clip-path="url(#clip0_809_2776)">
<path d="M65.1711 30.8705H61.5009C60.7353 24.8335 57.9848 19.2223 53.6818 14.9193C49.3788 10.6164 43.7676 7.86578 37.7306 7.10022V3.43006C37.7306 2.52035 37.3692 1.6479 36.726 1.00464C36.0827 0.36138 35.2103 0 34.3006 0C33.3909 0 32.5184 0.36138 31.8751 1.00464C31.2319 1.6479 30.8705 2.52035 30.8705 3.43006V7.10022C24.8335 7.86578 19.2223 10.6164 14.9193 14.9193C10.6164 19.2223 7.86578 24.8335 7.10022 30.8705H3.43006C2.52035 30.8705 1.6479 31.2319 1.00464 31.8751C0.36138 32.5184 0 33.3909 0 34.3006C0 35.2103 0.36138 36.0827 1.00464 36.726C1.6479 37.3692 2.52035 37.7306 3.43006 37.7306H7.10022C7.86578 43.7676 10.6164 49.3788 14.9193 53.6818C19.2223 57.9848 24.8335 60.7353 30.8705 61.5009V65.1711C30.8705 66.0808 31.2319 66.9532 31.8751 67.5965C32.5184 68.2397 33.3909 68.6011 34.3006 68.6011C35.2103 68.6011 36.0827 68.2397 36.726 67.5965C37.3692 66.9532 37.7306 66.0808 37.7306 65.1711V61.5009C43.7676 60.7353 49.3788 57.9848 53.6818 53.6818C57.9848 49.3788 60.7353 43.7676 61.5009 37.7306H65.1711C66.0808 37.7306 66.9532 37.3692 67.5965 36.726C68.2397 36.0827 68.6011 35.2103 68.6011 34.3006C68.6011 33.3909 68.2397 32.5184 67.5965 31.8751C66.9532 31.2319 66.0808 30.8705 65.1711 30.8705ZM51.4508 37.7306H54.5722C53.8573 41.9374 51.8525 45.8179 48.8352 48.8352C45.8179 51.8525 41.9374 53.8573 37.7306 54.5722V51.4508C37.7306 50.5411 37.3692 49.6687 36.726 49.0254C36.0827 48.3822 35.2103 48.0208 34.3006 48.0208C33.3909 48.0208 32.5184 48.3822 31.8751 49.0254C31.2319 49.6687 30.8705 50.5411 30.8705 51.4508V54.5722C26.6637 53.8573 22.7832 51.8525 19.7659 48.8352C16.7486 45.8179 14.7438 41.9374 14.0289 37.7306H17.1503C18.06 37.7306 18.9324 37.3692 19.5757 36.726C20.219 36.0827 20.5803 35.2103 20.5803 34.3006C20.5803 33.3909 20.219 32.5184 19.5757 31.8751C18.9324 31.2319 18.06 30.8705 17.1503 30.8705H14.0289C14.7438 26.6637 16.7486 22.7832 19.7659 19.7659C22.7832 16.7486 26.6637 14.7438 30.8705 14.0289V17.1503C30.8705 18.06 31.2319 18.9324 31.8751 19.5757C32.5184 20.219 33.3909 20.5803 34.3006 20.5803C35.2103 20.5803 36.0827 20.219 36.726 19.5757C37.3692 18.9324 37.7306 18.06 37.7306 17.1503V14.0289C41.9374 14.7438 45.8179 16.7486 48.8352 19.7659C51.8525 22.7832 53.8573 26.6637 54.5722 30.8705H51.4508C50.5411 30.8705 49.6687 31.2319 49.0254 31.8751C48.3822 32.5184 48.0208 33.3909 48.0208 34.3006C48.0208 35.2103 48.3822 36.0827 49.0254 36.726C49.6687 37.3692 50.5411 37.7306 51.4508 37.7306Z" fill="#022454"/>
<path d="M32.3955 31.4487C32.9596 31.0718 33.6227 30.8706 34.3012 30.8706C35.2109 30.8706 36.0833 31.232 36.7266 31.8752C37.3698 32.5185 37.7312 33.391 37.7312 34.3007C37.7312 34.9791 37.53 35.6422 37.1531 36.2063C36.7762 36.7704 36.2405 37.21 35.6138 37.4696C34.987 37.7292 34.2973 37.7972 33.632 37.6648C32.9666 37.5325 32.3554 37.2058 31.8757 36.7261C31.396 36.2464 31.0694 35.6352 30.937 34.9698C30.8047 34.3045 30.8726 33.6148 31.1322 32.988C31.3918 32.3613 31.8314 31.8256 32.3955 31.4487Z" fill="#E64E2E"/>
</g>
<defs>
<clipPath id="clip0_809_2776">
<rect width="68.6011" height="68.6011" fill="white"/>
</clipPath>
</defs>
</svg>
