<svg width="534" height="823" viewBox="0 0 534 823" fill="none" xmlns="http://www.w3.org/2000/svg">
<g opacity="0.54" clip-path="url(#clip0_888_2723)">
<path d="M765.398 259.947L705.022 287.441C686.542 295.878 670.496 308.847 658.373 325.146C646.25 341.444 638.443 360.543 635.678 380.668C632.887 400.785 625.07 419.872 612.95 436.166C600.83 452.461 584.798 465.436 566.334 473.895V473.895C547.854 482.332 531.807 495.301 519.684 511.6C507.561 527.898 499.755 546.997 496.99 567.122C494.186 587.234 486.364 606.316 474.246 622.608C462.127 638.9 446.101 651.88 427.645 660.349C409.166 668.786 393.119 681.756 380.996 698.054C368.873 714.352 361.066 733.451 358.301 753.576L349.333 819.309" stroke="#E64E2E" stroke-width="2" stroke-linecap="round" stroke-linejoin="round"/>
<path d="M720.695 226.694L660.319 254.188C641.839 262.625 625.793 275.594 613.67 291.893C601.546 308.191 593.74 327.29 590.975 347.415C588.184 367.532 580.367 386.619 568.247 402.913C556.127 419.208 540.094 432.184 521.631 440.642V440.642C503.151 449.079 487.104 462.048 474.981 478.347C462.858 494.645 455.052 513.744 452.286 533.869C449.483 553.982 441.661 573.063 429.542 589.355C417.424 605.648 401.398 618.627 382.942 627.096V627.096C364.463 635.533 348.416 648.503 336.293 664.801C324.17 681.1 316.363 700.198 313.598 720.323L304.63 786.056" stroke="#E64E2E" stroke-width="2" stroke-linecap="round" stroke-linejoin="round"/>
<path d="M675.934 193.398L615.557 220.892C597.077 229.328 581.031 242.298 568.908 258.597C556.785 274.895 548.978 293.994 546.213 314.119C543.422 334.236 535.605 353.323 523.485 369.617C511.365 385.911 495.333 398.887 476.869 407.346V407.346C458.389 415.783 442.343 428.752 430.22 445.051C418.096 461.349 410.29 480.448 407.525 500.573C404.721 520.685 396.899 539.767 384.781 556.059C372.662 572.351 356.637 585.33 338.181 593.8V593.8C319.701 602.237 303.654 615.206 291.531 631.505C279.408 647.803 271.601 666.902 268.836 687.027L259.869 752.76" stroke="#E64E2E" stroke-width="2" stroke-linecap="round" stroke-linejoin="round"/>
<path d="M631.34 160.231L570.963 187.725C552.484 196.162 536.437 209.131 524.314 225.43C512.191 241.728 504.384 260.827 501.619 280.952C498.828 301.069 491.012 320.156 478.892 336.45C466.772 352.745 450.739 365.721 432.275 374.179V374.179C413.795 382.616 397.749 395.586 385.626 411.884C373.503 428.182 365.696 447.281 362.931 467.406C360.127 487.519 352.306 506.6 340.187 522.892C328.068 539.185 312.043 552.164 293.587 560.634V560.634C275.107 569.07 259.061 582.04 246.937 598.338C234.814 614.637 227.008 633.735 224.243 653.861L215.275 719.594" stroke="#E64E2E" stroke-width="2" stroke-linecap="round" stroke-linejoin="round"/>
</g>
<g opacity="0.54" clip-path="url(#clip1_888_2723)">
<path d="M591.285 130.437L530.909 157.931C512.429 166.367 496.383 179.337 484.259 195.635C472.136 211.934 464.33 231.033 461.565 251.158C458.774 271.274 450.957 290.362 438.837 306.656C426.717 322.95 410.684 335.926 392.22 344.385V344.385C373.741 352.821 357.694 365.791 345.571 382.09C333.448 398.388 325.641 417.487 322.876 437.612C320.072 457.724 312.251 476.806 300.132 493.098C288.014 509.39 271.988 522.369 253.532 530.839C235.052 539.276 219.006 552.245 206.883 568.544C194.76 584.842 186.953 603.941 184.188 624.066L175.22 689.799" stroke="#E64E2E" stroke-width="2" stroke-linecap="round" stroke-linejoin="round"/>
<path d="M546.582 97.1836L486.206 124.678C467.726 133.114 451.679 146.084 439.556 162.382C427.433 178.681 419.627 197.78 416.861 217.905C414.07 238.021 406.254 257.109 394.134 273.403C382.014 289.697 365.981 302.673 347.517 311.132V311.132C329.038 319.568 312.991 332.538 300.868 348.837C288.745 365.135 280.938 384.234 278.173 404.359C275.369 424.471 267.548 443.553 255.429 459.845C243.311 476.137 227.285 489.116 208.829 497.586V497.586C190.349 506.023 174.303 518.992 162.18 535.291C150.057 551.589 142.25 570.688 139.485 590.813L130.517 656.546" stroke="#E64E2E" stroke-width="2" stroke-linecap="round" stroke-linejoin="round"/>
<path d="M501.82 63.8875L441.444 91.3817C422.964 99.8181 406.918 112.788 394.795 129.086C382.671 145.385 374.865 164.483 372.1 184.609C369.309 204.725 361.492 223.812 349.372 240.107C337.252 256.401 321.219 269.377 302.756 277.836V277.836C284.276 286.272 268.229 299.242 256.106 315.541C243.983 331.839 236.177 350.938 233.411 371.063C230.608 391.175 222.786 410.257 210.667 426.549C198.549 442.841 182.523 455.82 164.067 464.29V464.29C145.588 472.726 129.541 485.696 117.418 501.995C105.295 518.293 97.4882 537.392 94.7231 557.517L85.7553 623.25" stroke="#E64E2E" stroke-width="2" stroke-linecap="round" stroke-linejoin="round"/>
<path d="M457.227 30.7207L396.85 58.2149C378.37 66.6513 362.324 79.621 350.201 95.9195C338.078 112.218 330.271 131.317 327.506 151.442C324.715 171.559 316.898 190.646 304.778 206.94C292.658 223.234 276.626 236.21 258.162 244.669V244.669C239.682 253.106 223.636 266.075 211.512 282.374C199.389 298.672 191.583 317.771 188.818 337.896C186.014 358.008 178.192 377.09 166.074 393.382C153.955 409.674 137.929 422.653 119.474 431.123V431.123C100.994 439.56 84.9473 452.529 72.8242 468.828C60.7011 485.126 52.8944 504.225 50.1293 524.35L41.1616 590.083" stroke="#E64E2E" stroke-width="2" stroke-linecap="round" stroke-linejoin="round"/>
</g>
<defs>
<clipPath id="clip0_888_2723">
<rect width="702" height="218" fill="white" transform="translate(768 259.617) rotate(126.643)"/>
</clipPath>
<clipPath id="clip1_888_2723">
<rect width="702" height="218" fill="white" transform="translate(593.887 130.107) rotate(126.643)"/>
</clipPath>
</defs>
</svg>
