<svg width="40" height="40" viewBox="0 0 69 69" fill="none" xmlns="http://www.w3.org/2000/svg">
<g clip-path="url(#clip0_809_2788)">
<path d="M5.70815 52.5845C6.04552 53.4334 6.70593 54.1133 7.54409 54.4747C8.38226 54.8361 9.32953 54.8494 10.1775 54.5117C11.0255 54.174 11.7047 53.513 12.0658 52.6739C12.4268 51.8349 12.4401 50.8867 12.1028 50.0379L8.25225 40.3332L31.0804 35.2743V51.6209C31.0804 52.5337 31.4426 53.409 32.0873 54.0544C32.7321 54.6998 33.6065 55.0623 34.5183 55.0623C35.4301 55.0623 36.3046 54.6998 36.9493 54.0544C37.5941 53.409 37.9563 52.5337 37.9563 51.6209V35.2743L60.7844 40.3332L56.9339 50.0379C56.7664 50.4582 56.6833 50.9073 56.6895 51.3597C56.6956 51.8122 56.7909 52.2589 56.9697 52.6744C57.1485 53.09 57.4074 53.4661 57.7316 53.7814C58.0559 54.0967 58.439 54.3448 58.8591 54.5117C59.2626 54.6771 59.6953 54.759 60.1312 54.7526C60.8197 54.7533 61.4926 54.547 62.0627 54.1604C62.6327 53.7739 63.0737 53.2249 63.3285 52.5845L68.6573 39.1287C68.8402 38.6633 68.9196 38.1636 68.8899 37.6643C68.8602 37.1651 68.7222 36.6783 68.4854 36.2379C68.2557 35.7991 67.934 35.4151 67.5424 35.1122C67.1508 34.8093 66.6985 34.5946 66.2164 34.4828L55.1461 32.0394V17.207C55.1461 16.2943 54.7839 15.4189 54.1392 14.7735C53.4944 14.1282 52.62 13.7656 51.7082 13.7656H44.8322V3.4414C44.8322 2.52868 44.47 1.65335 43.8253 1.00796C43.1805 0.362574 42.3061 0 41.3943 0H27.6424C26.7306 0 25.8561 0.362574 25.2114 1.00796C24.5666 1.65335 24.2044 2.52868 24.2044 3.4414V13.7656H17.3285C16.4167 13.7656 15.5422 14.1282 14.8975 14.7735C14.2527 15.4189 13.8905 16.2943 13.8905 17.207V32.0394L2.82026 34.414C2.33813 34.5258 1.8858 34.7405 1.49419 35.0434C1.10259 35.3463 0.780926 35.7303 0.551198 36.1691C0.314423 36.6095 0.176387 37.0962 0.1467 37.5955C0.117013 38.0947 0.196388 38.5944 0.3793 39.0599L5.70815 52.5845ZM31.0804 6.88279H37.9563V13.7656H31.0804V6.88279ZM20.7664 20.6484H48.2702V30.4908L35.2747 27.5312H33.762L20.7664 30.4908V20.6484Z" fill="#022454"/>
<path d="M61.0228 61.016C62.1014 60.3614 63.256 59.8414 64.4607 59.4674L64.7701 59.3985C65.6544 59.1916 66.5846 59.3432 67.3575 59.8203C68.1305 60.2975 68.6834 61.0613 68.8957 61.9452V62.1172C69.0791 63.0068 68.9038 63.9329 68.4079 64.6936C67.912 65.4543 67.1358 65.9879 66.2485 66.1781C65.5555 66.3639 64.8947 66.654 64.2888 67.0384C62.1579 68.3115 59.7226 68.9837 57.241 68.9837C54.7594 68.9837 52.3241 68.3115 50.1932 67.0384C48.8456 66.2943 47.3316 65.904 45.7926 65.904C44.2535 65.904 42.7396 66.2943 41.392 67.0384C39.2353 68.2728 36.7941 68.9222 34.3098 68.9222C31.8254 68.9222 29.3842 68.2728 27.2276 67.0384C25.88 66.2943 24.366 65.904 22.827 65.904C21.2879 65.904 19.774 66.2943 18.4264 67.0384C16.2563 68.3058 13.7878 68.971 11.2754 68.9656C8.85566 68.9608 6.4814 68.3072 4.39945 67.0729C3.79354 66.6884 3.13278 66.3983 2.43981 66.2125C1.57081 65.9497 0.840922 65.3535 0.409389 64.5541C-0.0221438 63.7546 -0.120288 62.8168 0.136371 61.9452V61.5666C0.28573 61.1266 0.522567 60.7215 0.832599 60.3756C1.14263 60.0297 1.51944 59.7502 1.94029 59.554C2.36115 59.3579 2.81733 59.2491 3.28134 59.2342C3.74535 59.2193 4.20756 59.2986 4.64011 59.4674C5.84488 59.8414 6.99944 60.3614 8.07807 61.016C9.1733 61.6571 10.4192 61.995 11.6879 61.995C12.9567 61.995 14.2026 61.6571 15.2978 61.016C17.6815 59.6775 20.3688 58.9746 23.102 58.9746C25.8351 58.9746 28.5224 59.6775 30.9062 61.016C32.0186 61.6431 33.2737 61.9726 34.5504 61.9726C35.8271 61.9726 37.0823 61.6431 38.1947 61.016C40.5784 59.6775 43.2657 58.9746 45.9989 58.9746C48.732 58.9746 51.4193 59.6775 53.803 61.016C54.8983 61.6571 56.1442 61.995 57.4129 61.995C58.6816 61.995 59.9275 61.6571 61.0228 61.016Z" fill="#E64E2E"/>
</g>
<defs>
<clipPath id="clip0_809_2788">
<rect width="69" height="69" fill="white"/>
</clipPath>
</defs>
</svg>
