<svg width="40" height="40" viewBox="0 0 69 69" fill="none" xmlns="http://www.w3.org/2000/svg">
<g clip-path="url(#clip0_809_2780)">
<path d="M58.3109 0H10.2902C7.56105 0 4.9437 1.08414 3.01392 3.01392C1.08414 4.9437 0 7.56105 0 10.2902V58.3109C0 61.0401 1.08414 63.6574 3.01392 65.5872C4.9437 67.517 7.56105 68.6011 10.2902 68.6011H58.3109C61.0401 68.6011 63.6574 67.517 65.5872 65.5872C67.517 63.6574 68.6011 61.0401 68.6011 58.3109V10.2902C68.6011 7.56105 67.517 4.9437 65.5872 3.01392C63.6574 1.08414 61.0401 0 58.3109 0ZM41.1607 6.86011V18.145L35.9813 15.2637C35.4599 14.9627 34.8684 14.8042 34.2663 14.8042C33.6642 14.8042 33.0727 14.9627 32.5512 15.2637L27.4404 18.145V6.86011H41.1607ZM61.741 58.3109C61.741 59.2207 61.3796 60.0931 60.7364 60.7364C60.0931 61.3796 59.2207 61.741 58.3109 61.741H10.2902C9.38046 61.741 8.50801 61.3796 7.86475 60.7364C7.22149 60.0931 6.86011 59.2207 6.86011 58.3109V10.2902C6.86011 9.38046 7.22149 8.50801 7.86475 7.86475C8.50801 7.22149 9.38046 6.86011 10.2902 6.86011H20.5803V24.0104C20.5839 24.6107 20.7451 25.1996 21.0476 25.7182C21.3501 26.2367 21.7834 26.6668 22.3043 26.9654C22.8251 27.264 23.4152 27.4207 24.0155 27.4198C24.6159 27.4189 25.2055 27.2604 25.7254 26.9602L34.3006 22.1925L42.91 26.9945C43.4254 27.2782 44.0025 27.4313 44.5907 27.4404C45.5004 27.4404 46.3729 27.0791 47.0161 26.4358C47.6594 25.7925 48.0208 24.9201 48.0208 24.0104V6.86011H58.3109C59.2207 6.86011 60.0931 7.22149 60.7364 7.86475C61.3796 8.50801 61.741 9.38046 61.741 10.2902V58.3109Z" fill="#022454"/>
<path d="M24.0128 41.1609H17.1527C16.243 41.1609 15.3706 40.7995 14.7273 40.1563C14.084 39.513 13.7227 38.6405 13.7227 37.7308C13.7227 36.8211 14.084 35.9487 14.7273 35.3054C15.3706 34.6622 16.243 34.3008 17.1527 34.3008H24.0128C24.9225 34.3008 25.795 34.6622 26.4382 35.3054C27.0815 35.9487 27.4429 36.8211 27.4429 37.7308C27.4429 38.6405 27.0815 39.513 26.4382 40.1563C25.795 40.7995 24.9225 41.1609 24.0128 41.1609Z" fill="#E64E2E"/>
<path d="M17.1527 48.021H37.733C38.6428 48.021 39.5152 48.3824 40.1585 49.0256C40.8017 49.6689 41.1631 50.5414 41.1631 51.4511C41.1631 52.3608 40.8017 53.2332 40.1585 53.8765C39.5152 54.5197 38.6428 54.8811 37.733 54.8811H17.1527C16.243 54.8811 15.3706 54.5197 14.7273 53.8765C14.084 53.2332 13.7227 52.3608 13.7227 51.4511C13.7227 50.5414 14.084 49.6689 14.7273 49.0256C15.3706 48.3824 16.243 48.021 17.1527 48.021Z" fill="#E64E2E"/>
</g>
<defs>
<clipPath id="clip0_809_2780">
<rect width="68.6011" height="68.6011" fill="white"/>
</clipPath>
</defs>
</svg>
