<svg width="328" height="519" viewBox="0 0 328 519" fill="none" xmlns="http://www.w3.org/2000/svg">
<g opacity="0.35" clip-path="url(#clip0_520_2648)">
<path d="M213.538 21.8341L21.6797 213.692C-3.64556 239.017 -3.64567 280.078 21.6796 305.403L213.538 497.261C238.863 522.586 279.923 522.586 305.248 497.261L497.106 305.403C522.432 280.078 522.432 239.017 497.106 213.692L305.249 21.834C279.923 -3.49135 238.863 -3.49118 213.538 21.8341Z" stroke="#E64E2E" stroke-width="2" stroke-linecap="round" stroke-linejoin="round"/>
<path d="M213.61 117.655L117.645 213.62C92.3193 238.945 92.3194 280.006 117.645 305.331L213.61 401.296C238.935 426.621 279.995 426.621 305.321 401.296L401.286 305.331C426.611 280.006 426.611 238.945 401.286 213.62L305.321 117.655C279.995 92.3296 238.935 92.3295 213.61 117.655Z" stroke="#E64E2E" stroke-width="2" stroke-linecap="round" stroke-linejoin="round"/>
<path d="M305.321 213.692C279.995 188.367 238.935 188.367 213.609 213.692C188.284 239.017 188.284 280.078 213.61 305.403C238.935 330.728 279.995 330.728 305.321 305.403C330.646 280.078 330.646 239.017 305.321 213.692Z" stroke="#E64E2E" stroke-width="2" stroke-linecap="round" stroke-linejoin="round"/>
</g>
<defs>
<clipPath id="clip0_520_2648">
<rect width="519" height="519" fill="white"/>
</clipPath>
</defs>
</svg>
